<?xml version="1.0" standalone="no"?>
<!DOCTYPE svg PUBLIC "-//W3C//DTD SVG 20010904//EN"
 "http://www.w3.org/TR/2001/REC-SVG-20010904/DTD/svg10.dtd">
<svg version="1.0" xmlns="http://www.w3.org/2000/svg"
 width="1280.000000pt" height="1280.000000pt" viewBox="0 0 1280.000000 1280.000000"
 preserveAspectRatio="xMidYMid meet">

<g transform="translate(0.000000,1280.000000) scale(0.100000,-0.100000)"
fill="#000000" stroke="none">
<path d="M3065 11979 c-580 -45 -1100 -284 -1506 -692 -290 -291 -506 -648
-614 -1017 -227 -781 -72 -1582 428 -2214 98 -123 283 -307 386 -384 42 -31
78 -59 81 -62 6 -8 70 -52 92 -65 9 -5 63 -37 120 -71 318 -187 666 -294 1049
-324 496 -38 1071 117 1502 408 102 68 143 98 232 172 38 32 197 191 250 250
222 250 407 591 504 931 144 501 115 1062 -79 1549 -44 112 -120 268 -151 312
-11 14 -19 29 -19 32 0 22 -149 228 -249 346 -492 578 -1255 890 -2026 829z"/>
<path d="M5897 9219 c-134 -31 -222 -143 -221 -279 1 -114 55 -200 157 -249
43 -21 117 -41 242 -65 99 -19 398 -78 664 -131 266 -52 508 -95 537 -95 302
0 393 397 123 535 -32 17 -169 48 -455 105 -225 44 -533 105 -684 135 -285 57
-300 59 -363 44z"/>
<path d="M7783 6886 c-23 -7 -60 -27 -82 -43 -23 -17 -284 -269 -580 -562
-607 -598 -601 -591 -601 -721 0 -55 6 -78 31 -129 51 -101 134 -151 253 -151
137 0 116 -18 975 841 365 366 374 377 373 500 0 108 -58 201 -153 250 -52 26
-159 34 -216 15z"/>
<path d="M7692 3374 c-269 -72 -296 -421 -43 -538 l46 -21 2112 -3 2112 -2 57
21 c118 44 187 141 188 264 1 57 -4 80 -27 127 -33 66 -89 119 -156 145 -44
17 -148 18 -2141 20 -1794 2 -2103 0 -2148 -13z"/>
</g>
</svg>
